<svg xmlns="http://www.w3.org/2000/svg" width="375.532" height="314.036">
  <path fill="#FFF" d="M85.665 241.688c-4.989 0-8.249 2.723-9.928 6.045-1.433-3.588-3.607-6.045-8.941-6.045-5.136 0-8.15 2.592-10.078 5.979h-.099v-4.984H44.667v36.344h12.349v-19.268c0-4.453 1.63-6.113 4.198-6.113 2.174 0 3.31 1.197 3.31 4.852v20.529h11.955v-19.268c0-4.453 1.63-6.113 4.198-6.113 2.174 0 3.309 1.197 3.309 4.852v20.529h12.349v-25.049c-.002-8.837-4.744-12.29-10.67-12.29zm31.412-.467c-12.152 0-19.263 7.043-19.263 19.6 0 13.287 7.409 19.666 20.401 19.666 5.678 0 9.928-1.197 13.089-3.322 3.162-2.127 5.235-5.248 6.173-9.035h-13.139c-1.332 2.258-3.208 3.189-6.421 3.189-5.432 0-7.458-3.988-7.458-6.58h27.167c.196-18.135-8.597-23.518-20.549-23.518zm-6.619 15.147c.643-4.582 3.112-6.377 7.409-6.377 4.248 0 7.064 2.459 7.311 6.377h-14.72zm69.845-14.68c-4.989 0-8.25 2.723-9.931 6.045-1.431-3.588-3.605-6.045-8.941-6.045-5.136 0-8.148 2.592-10.076 5.979h-.099v-4.984h-11.955v36.344h12.349v-19.268c0-4.453 1.632-6.113 4.201-6.113 2.172 0 3.31 1.197 3.31 4.852v20.529h11.952v-19.268c0-4.453 1.63-6.113 4.201-6.113 2.172 0 3.31 1.197 3.31 4.852v20.529h12.349v-25.049c-.001-8.837-4.744-12.29-10.67-12.29zm35.807 0c-5.038 0-8.594 1.66-10.719 5.113h-.098v-16.873h-12.349v49.098h11.954v-3.854h.099c2.224 3.453 5.631 5.314 11.112 5.314 8.002 0 15.362-5.914 15.362-19.4s-7.359-19.398-15.361-19.398zm-4.051 27.637c-4.739 0-6.766-3.057-6.766-8.238 0-5.115 2.026-8.238 6.817-8.238 4.445 0 6.718 3.588 6.718 8.238.001 4.785-1.977 8.238-6.769 8.238zm109.309-27.637c-5.93 0-9.882 3.188-11.165 5.514h-.099v-4.52H298.15v36.344h12.35v-16.742c0-6.047 2.468-8.639 5.73-8.639 2.913 0 4.74 1.994 4.74 6.578v18.803h12.349v-23.121c.001-10.1-5.136-14.217-11.951-14.217zm-25.092 14.148c0-10.828-4.988-14.615-17.584-14.615-6.52 0-11.016.666-14.03 2.527-1.893 1.189-3.198 2.818-4.095 5.062v-6.727c-1.334-.266-2.719-.396-4.053-.396-4.248 0-8.298 2.324-11.509 7.971h-.099v-6.977h-11.955v36.344h12.352v-13.621c0-7.84 4.69-9.766 9.086-9.766 2.174 0 4.001.598 6.178 1.328v-3.256h11.11c.594-3.521 3.408-4.117 6.225-4.117 3.507 0 5.728 1.129 5.728 3.52 0 1.994-.84 2.791-3.31 2.99l-10.421.664c-9.138.531-12.644 4.783-12.644 11.428 0 9.301 5.234 12.291 13.533 12.291 6.569 0 10.768-1.596 13.535-5.049.047 1.328.443 3.588.443 3.588l11.715-.004v-5.645l-.205-17.54zm-12.349 8.241c0 6.244-4.595 7.641-8.743 7.641-3.063 0-4.593-1.594-4.593-4.119 0-2.326 1.086-3.324 3.356-3.588 4.397-.531 7.906-.932 9.979-1.529v1.595z"/>
  <g fill="#FFF">
    <path d="M165.285 136.352l7.146 12.598.148-.249c-1.937-13.494-1.086-27.75 6.699-40.891 8.081-13.646 14.895-12.991 22.207-7.585-1.886-10.812-1.396-23.457 3.455-34.855l-16.176-28.019L89.596 209.12h81.499l-23.917-42.191 18.107-30.577zm61.173-34.417l.01-.006s-.127-.236-.329-.549l-1.086-1.881c-.424-.73-.924-1.293-1.479-1.671-2.17-1.485-5.142.017-7.337 3.726-4.374 7.474-3.591 16.237 2.392 26.789l45.776 80.774 23.987.016-61.934-107.198z"/>
    <path d="M200.636 155.219c-3.04-5.356-5.582-7.849-8-7.849-1.783 0-3.373 1.284-5.008 4.043-4.399 7.425-3.618 16.189 2.39 26.794l17.53 30.912h23.584l-30.496-53.9z"/>
  </g>
</svg>
